<?xml version="1.0" encoding="utf-8"?>
<!-- Generator: Adobe Illustrator 15.0.0, SVG Export Plug-In . SVG Version: 6.00 Build 0)  -->
<!DOCTYPE svg PUBLIC "-//W3C//DTD SVG 1.1//EN" "http://www.w3.org/Graphics/SVG/1.1/DTD/svg11.dtd">
<svg version="1.1" id="Layer_1" xmlns="http://www.w3.org/2000/svg" xmlns:xlink="http://www.w3.org/1999/xlink" x="0px" y="0px"
	 width="300px" height="300px" viewBox="0 0 300 300" enable-background="new 0 0 300 300" xml:space="preserve">
<g>
	<path fill="#FFFFFF" d="M286.333,150.008c0.141,13.366-1.674,26.809-5.439,39.698c-3.758,12.894-9.454,25.238-16.834,36.505
		c-14.722,22.566-36.277,40.705-61.236,51.314c-24.935,10.692-53.11,13.696-79.91,8.663c-13.403-2.504-26.45-7.022-38.567-13.36
		c-12.121-6.331-23.312-14.472-33.105-24.069c-9.793-9.596-18.188-20.648-24.804-32.711c-6.621-12.059-11.452-25.127-14.261-38.638
		c-5.641-27.009-3.214-55.744,7.219-81.51c10.346-25.78,28.538-48.384,51.611-64.116c11.519-7.883,24.229-14.071,37.596-18.262
		c13.363-4.2,27.373-6.387,41.397-6.524h0.011c4.419-0.043,8.036,3.504,8.079,7.922c0.043,4.419-3.504,8.036-7.923,8.079
		c-0.042,0-0.125,0-0.167,0c-12.486-0.14-24.991,1.542-37,5.039c-12.009,3.489-23.512,8.786-34.019,15.657
		c-21.046,13.706-37.983,33.806-47.885,57.057c-9.979,23.207-12.806,49.522-8.128,74.524c2.326,12.498,6.529,24.663,12.432,35.971
		c5.898,11.311,13.488,21.764,22.441,30.912c8.952,9.149,19.266,16.994,30.518,23.176c11.249,6.188,23.435,10.702,36.042,13.333
		c25.212,5.286,52.085,3.036,76.124-6.685c24.072-9.639,45.221-26.629,59.936-48.183c7.373-10.759,13.161-22.628,17.084-35.109
		c3.932-12.483,5.985-25.556,6.123-38.7c0.008-0.736,0.61-1.327,1.347-1.319c0.727,0.007,1.311,0.594,1.319,1.317V150.008z">
		
			<animateTransform  attributeType="xml"  attributeName="transform"  type="rotate"  from="0 150 150" to="360 150 150" dur="2s" repeatCount="indefinite" />
		
		</path>
</g>
<g opacity="0.5">
	<path fill="#008DD1" stroke="#1F215A" stroke-width="3" stroke-miterlimit="10" d="M149.841,294.943
		c-30.836,0.002-61.891-9.767-88.177-29.963c-30.712-23.598-50.397-57.742-55.428-96.146C1.205,130.432,11.43,92.369,35.027,61.657
		C58.625,30.944,92.77,11.259,131.172,6.229c38.401-5.034,76.466,5.194,107.179,28.791l-12.186,15.859
		c-26.476-20.342-59.29-29.157-92.395-24.82c-33.105,4.337-62.541,21.307-82.883,47.784c-20.343,26.476-29.157,59.289-24.82,92.395
		c4.337,33.105,21.307,62.541,47.783,82.884c54.654,41.992,133.284,31.691,175.278-22.964l15.859,12.186
		C236.471,275.456,193.379,294.939,149.841,294.943z"/>
</g>
</svg>
